<svg width="14" height="14" fill="none" xmlns="http://www.w3.org/2000/svg"><path d="M11.34 7.583c-.128 0-.262-.04-.39-.07a5.507 5.507 0 01-.765-.227 1.167 1.167 0 00-1.447.583l-.128.263a7.105 7.105 0 01-1.552-1.167 7.105 7.105 0 01-1.166-1.552l.245-.163a1.167 1.167 0 00.583-1.447 6.026 6.026 0 01-.228-.764 4.326 4.326 0 01-.07-.397 1.75 1.75 0 00-1.75-1.452h-1.75a1.75 1.75 0 00-1.75 1.99 11.083 11.083 0 009.637 9.6h.222a1.75 1.75 0 001.599-1.036c.1-.226.152-.471.15-.719v-1.75a1.75 1.75 0 00-1.44-1.692zm.292 3.5a.584.584 0 01-.422.562.613.613 0 01-.255.022 9.917 9.917 0 01-8.58-8.622.636.636 0 01.145-.478.583.583 0 01.438-.199h1.75a.583.583 0 01.583.461 6.488 6.488 0 00.356 1.377l-.817.379a.583.583 0 00-.286.776 8.453 8.453 0 004.083 4.083.583.583 0 00.444 0 .583.583 0 00.332-.303l.362-.817c.302.108.61.198.922.268.155.035.313.065.472.088a.583.583 0 01.461.583l.012 1.82z" fill="#000" opacity=".3"/></svg>